<svg width="44" height="17" viewBox="0 0 44 17" fill="none" xmlns="http://www.w3.org/2000/svg">
<path d="M8.99219 13L7.85156 9.82812H3.48438L2.36719 13H0.398438L4.67188 1.53125H6.70312L10.9766 13H8.99219ZM7.35938 8.21875L6.28906 5.10938C6.21094 4.90104 6.10156 4.57292 5.96094 4.125C5.82552 3.67708 5.73177 3.34896 5.67969 3.14062C5.53906 3.78125 5.33333 4.48177 5.0625 5.24219L4.03125 8.21875H7.35938ZM16.6719 13.1562C15.5781 13.1562 14.7292 12.763 14.125 11.9766H14.0156C14.0885 12.7057 14.125 13.1484 14.125 13.3047V16.8438H12.2891V4.35938H13.7734C13.8151 4.52083 13.901 4.90625 14.0312 5.51562H14.125C14.6979 4.64062 15.5573 4.20312 16.7031 4.20312C17.7812 4.20312 18.6198 4.59375 19.2188 5.375C19.8229 6.15625 20.125 7.2526 20.125 8.66406C20.125 10.0755 19.8177 11.1771 19.2031 11.9688C18.5938 12.7604 17.75 13.1562 16.6719 13.1562ZM16.2266 5.70312C15.4974 5.70312 14.9635 5.91667 14.625 6.34375C14.2917 6.77083 14.125 7.45312 14.125 8.39062V8.66406C14.125 9.71615 14.2917 10.4792 14.625 10.9531C14.9583 11.4219 15.5026 11.6562 16.2578 11.6562C16.8932 11.6562 17.3828 11.3958 17.7266 10.875C18.0703 10.3542 18.2422 9.61198 18.2422 8.64844C18.2422 7.67969 18.0703 6.94792 17.7266 6.45312C17.388 5.95312 16.888 5.70312 16.2266 5.70312ZM26.6406 13.1562C25.5469 13.1562 24.6979 12.763 24.0938 11.9766H23.9844C24.0573 12.7057 24.0938 13.1484 24.0938 13.3047V16.8438H22.2578V4.35938H23.7422C23.7839 4.52083 23.8698 4.90625 24 5.51562H24.0938C24.6667 4.64062 25.526 4.20312 26.6719 4.20312C27.75 4.20312 28.5885 4.59375 29.1875 5.375C29.7917 6.15625 30.0938 7.2526 30.0938 8.66406C30.0938 10.0755 29.7865 11.1771 29.1719 11.9688C28.5625 12.7604 27.7188 13.1562 26.6406 13.1562ZM26.1953 5.70312C25.4661 5.70312 24.9323 5.91667 24.5938 6.34375C24.2604 6.77083 24.0938 7.45312 24.0938 8.39062V8.66406C24.0938 9.71615 24.2604 10.4792 24.5938 10.9531C24.9271 11.4219 25.4714 11.6562 26.2266 11.6562C26.862 11.6562 27.3516 11.3958 27.6953 10.875C28.0391 10.3542 28.2109 9.61198 28.2109 8.64844C28.2109 7.67969 28.0391 6.94792 27.6953 6.45312C27.3568 5.95312 26.8568 5.70312 26.1953 5.70312ZM34.0625 13H32.2266V0.84375H34.0625V13ZM40.4688 13.1562C39.125 13.1562 38.0729 12.7656 37.3125 11.9844C36.5573 11.1979 36.1797 10.1172 36.1797 8.74219C36.1797 7.33073 36.5312 6.22135 37.2344 5.41406C37.9375 4.60677 38.9036 4.20312 40.1328 4.20312C41.2734 4.20312 42.1745 4.54948 42.8359 5.24219C43.4974 5.9349 43.8281 6.88802 43.8281 8.10156V9.09375H38.0703C38.0964 9.93229 38.3229 10.5781 38.75 11.0312C39.1771 11.4792 39.7786 11.7031 40.5547 11.7031C41.0651 11.7031 41.5391 11.6562 41.9766 11.5625C42.4193 11.4635 42.8932 11.3021 43.3984 11.0781V12.5703C42.9505 12.7839 42.4974 12.9349 42.0391 13.0234C41.5807 13.112 41.0573 13.1562 40.4688 13.1562ZM40.1328 5.59375C39.5495 5.59375 39.0807 5.77865 38.7266 6.14844C38.3776 6.51823 38.1693 7.05729 38.1016 7.76562H42.0234C42.013 7.05208 41.8411 6.51302 41.5078 6.14844C41.1745 5.77865 40.7161 5.59375 40.1328 5.59375Z" fill="#231F20"/>
</svg>
