<svg width="20" height="20" viewBox="0 0 20 20" fill="none" xmlns="http://www.w3.org/2000/svg">
<path d="M10 20C8.61667 20 7.31667 19.7375 6.1 19.2125C4.88333 18.6875 3.825 17.975 2.925 17.075C2.025 16.175 1.3125 15.1167 0.7875 13.9C0.2625 12.6833 0 11.3833 0 10C0 8.61667 0.2625 7.31667 0.7875 6.1C1.3125 4.88333 2.025 3.825 2.925 2.925C3.825 2.025 4.88333 1.3125 6.1 0.7875C7.31667 0.2625 8.61667 0 10 0C11.05 0 12.0458 0.15 12.9875 0.45C13.9292 0.75 14.8 1.16667 15.6 1.7L14.075 3.225C13.475 2.875 12.8333 2.6 12.15 2.4C11.4667 2.2 10.75 2.1 10 2.1C7.81667 2.1 5.95417 2.87083 4.4125 4.4125C2.87083 5.95417 2.1 7.81667 2.1 10C2.1 12.1833 2.87083 14.0458 4.4125 15.5875C5.95417 17.1292 7.81667 17.9 10 17.9C12.1833 17.9 14.0458 17.1292 15.5875 15.5875C17.1292 14.0458 17.9 12.1833 17.9 10C17.9 9.71667 17.8875 9.44583 17.8625 9.1875C17.8375 8.92917 17.8 8.675 17.75 8.425L19.45 6.725C19.6333 7.24167 19.7708 7.77083 19.8625 8.3125C19.9542 8.85417 20 9.41667 20 10C20 11.3833 19.7375 12.6833 19.2125 13.9C18.6875 15.1167 17.975 16.175 17.075 17.075C16.175 17.975 15.1167 18.6875 13.9 19.2125C12.6833 19.7375 11.3833 20 10 20ZM8.625 14.575L4.35 10.275L5.825 8.8L8.65 11.625L18.525 1.75L20 3.2L8.625 14.575Z" fill="#171717"/>
</svg>
