<svg width="31" height="42" viewBox="0 0 31 42" fill="none" xmlns="http://www.w3.org/2000/svg">
<path d="M29.081 15.0348L29.081 15.0353C29.076 17.6073 28.3599 20.1283 27.0114 22.3212C25.6627 24.5142 23.7337 26.2942 21.436 27.4654L20.8999 27.7386L20.8887 28.3403C20.8712 29.2811 20.8415 30.2806 20.8161 31.0462C20.8123 31.1607 20.8087 31.2699 20.8051 31.3728L9.5956 31.3429C9.59585 31.271 9.5961 31.1963 9.59635 31.1191C9.59873 30.3938 9.60111 29.4455 9.60111 28.5551V27.9199L9.02683 27.6484C6.755 26.5743 4.81443 24.9117 3.40757 22.8346C2.00072 20.7575 1.17911 18.3421 1.02829 15.8406C0.877467 13.3391 1.40295 10.843 2.55003 8.61293C3.69712 6.38285 5.42383 4.5005 7.5501 3.16275C9.67638 1.82499 12.1241 1.08103 14.6376 1.0088C17.151 0.936568 19.6377 1.53874 21.8378 2.75221C24.0378 3.96568 25.8704 5.74581 27.1444 7.90638C28.4184 10.0669 29.0872 12.5288 29.081 15.0348Z" fill="#E6F2FF" stroke="#007AFF" stroke-width="2.00597"/>
<path d="M12.2441 40.9028C12.5649 41.1157 12.854 41.3725 13.1029 41.6659C13.1866 41.7707 13.2931 41.8553 13.4144 41.9132C13.5356 41.9711 13.6685 42.0007 13.8029 42H16.455C16.6017 42.001 16.7464 41.9659 16.8762 41.898C17.0061 41.83 17.1172 41.7313 17.1998 41.6104C17.3938 41.3236 17.7425 40.9827 18.1074 40.9096L12.2441 40.9028Z" fill="#E6F2FF"/>
<path d="M9.38574 33.5297C9.38574 33.5838 9.9935 37.7236 10.2255 39.297C10.2686 39.6179 10.3911 39.9231 10.582 40.185C10.7729 40.4469 11.0261 40.6573 11.3189 40.7973C11.5556 40.9055 11.8128 40.9622 12.0732 40.9637L17.8754 40.9745C17.8754 40.9745 19.3921 40.9745 19.738 39.7772C20.1029 38.5164 20.7961 33.554 20.7961 33.554L9.38574 33.5297Z" fill="#007AFF"/>
<path d="M20.1105 39.2253L10.0024 39.2415C9.92617 39.2415 9.85302 39.2113 9.79908 39.1575C9.74515 39.1037 9.71485 39.0308 9.71485 38.9547V38.9236C9.71467 38.886 9.72194 38.8487 9.73624 38.8139C9.75055 38.7792 9.77161 38.7475 9.7982 38.7209C9.8248 38.6942 9.85642 38.6731 9.89123 38.6586C9.92605 38.6442 9.96339 38.6368 10.0011 38.6368L20.1105 38.6192C20.1868 38.6192 20.2599 38.6494 20.3139 38.7032C20.3678 38.757 20.3981 38.8299 20.3981 38.906V38.9371C20.3981 39.0133 20.3679 39.0864 20.314 39.1404C20.2601 39.1944 20.1869 39.2249 20.1105 39.2253Z" fill="#E6F2FF"/>
<path d="M20.1102 39.2252C20.1837 39.2177 20.2525 39.1858 20.3056 39.1346C20.3357 39.1027 20.3582 39.0646 20.3716 39.0229C20.385 38.9812 20.3888 38.9371 20.3829 38.8938C20.3793 38.8352 20.3568 38.7794 20.3186 38.7347C20.2804 38.6901 20.2287 38.659 20.1713 38.6462C19.6287 38.6381 18.8066 38.6557 17.8094 38.6584L10.0022 38.6854C9.96255 38.6856 9.92357 38.6955 9.88875 38.7144C9.85394 38.7333 9.82439 38.7605 9.80277 38.7937C9.78076 38.8263 9.76767 38.864 9.76478 38.9032C9.76024 38.9436 9.76346 38.9845 9.77428 39.0237C9.78548 39.0611 9.80585 39.0952 9.83356 39.1228C9.86127 39.1505 9.89545 39.1708 9.933 39.1819C10.0202 39.1934 10.1083 39.1971 10.1962 39.1928H13.3666H16.8761L19.2434 39.2049L19.8864 39.2117H20.0533C20.0721 39.2085 20.0914 39.2085 20.1102 39.2117H20.0533H19.8864L19.2434 39.2225L16.8761 39.2415L13.3666 39.2577L11.2937 39.2645H10.1962H10.0605C10.0094 39.2678 9.95808 39.2627 9.90858 39.2496C9.85587 39.2338 9.80787 39.2053 9.76883 39.1666C9.72979 39.1279 9.70091 39.0802 9.68474 39.0277C9.67031 38.9763 9.66571 38.9226 9.67118 38.8694C9.6777 38.7855 9.7159 38.7071 9.77808 38.6501C9.84027 38.5931 9.9218 38.5617 10.0063 38.5623H17.8135C18.8147 38.5691 19.6178 38.5623 20.1849 38.5813C20.249 38.5973 20.3061 38.6337 20.3477 38.685C20.3893 38.7362 20.4131 38.7995 20.4155 38.8654C20.4207 38.9121 20.4152 38.9593 20.3995 39.0036C20.3837 39.0479 20.3581 39.0881 20.3246 39.1211C20.2999 39.1544 20.2675 39.1812 20.2302 39.1993C20.1929 39.2175 20.1517 39.2264 20.1102 39.2252Z" fill="#CCE4FF"/>
<path d="M20.3273 37.9224L9.79053 37.94C9.75283 37.9402 9.71546 37.933 9.68058 37.9187C9.64569 37.9044 9.61397 37.8834 9.58725 37.8569C9.56053 37.8304 9.53932 37.7988 9.52485 37.7641C9.51038 37.7294 9.50293 37.6922 9.50293 37.6546V37.6194C9.50275 37.5818 9.51003 37.5445 9.52433 37.5097C9.53864 37.475 9.55969 37.4433 9.58629 37.4167C9.61289 37.39 9.6445 37.3689 9.67932 37.3544C9.71414 37.34 9.75147 37.3326 9.78918 37.3326L20.3259 37.315C20.4022 37.3154 20.4753 37.3456 20.5294 37.3993C20.5835 37.453 20.6142 37.5257 20.6149 37.6018V37.6329C20.6152 37.6708 20.6081 37.7084 20.5938 37.7435C20.5795 37.7786 20.5584 37.8106 20.5316 37.8375C20.5049 37.8644 20.473 37.8858 20.438 37.9004C20.4029 37.9149 20.3653 37.9224 20.3273 37.9224Z" fill="#CCE4FF"/>
<path d="M20.3274 37.9225C20.4039 37.9163 20.4754 37.8821 20.5281 37.8264C20.5581 37.7922 20.5799 37.7517 20.5919 37.7078C20.6039 37.664 20.6057 37.6181 20.5973 37.5734C20.5895 37.5132 20.5615 37.4574 20.5179 37.4149C20.4744 37.3725 20.4178 37.3458 20.3572 37.3394L17.9018 37.357L9.79062 37.384C9.74932 37.3842 9.70878 37.395 9.67289 37.4154C9.63701 37.4358 9.607 37.465 9.58577 37.5004C9.56441 37.535 9.55271 37.5747 9.55186 37.6154C9.54782 37.6575 9.55338 37.7001 9.56814 37.7398C9.58259 37.7778 9.6067 37.8113 9.6381 37.8372C9.6695 37.863 9.7071 37.8803 9.74721 37.8873C9.82589 37.8954 9.93578 37.8873 10.028 37.8873H13.3219H16.9671L19.4266 37.8981L20.094 37.9062H20.2677H20.3274C20.3076 37.9094 20.2874 37.9094 20.2677 37.9062H20.094L19.4266 37.9171L16.9684 37.936L13.3219 37.9522H11.1676H10.028C9.92899 37.9522 9.84353 37.9522 9.72957 37.9522C9.67325 37.9422 9.62046 37.9179 9.57627 37.8816C9.53208 37.8454 9.49798 37.7984 9.47724 37.7452C9.45794 37.6929 9.45008 37.6371 9.45418 37.5815C9.45631 37.4941 9.49274 37.411 9.55564 37.35C9.61854 37.289 9.70291 37.2551 9.79062 37.2555H17.9004C18.9396 37.2555 19.7766 37.2555 20.3613 37.269C20.4308 37.2761 20.4958 37.3069 20.5452 37.3562C20.5946 37.4055 20.6255 37.4703 20.6326 37.5396C20.6399 37.5881 20.6361 37.6376 20.6216 37.6845C20.607 37.7313 20.582 37.7743 20.5485 37.8102C20.5249 37.8467 20.4919 37.8763 20.4531 37.896C20.4143 37.9158 20.3709 37.9249 20.3274 37.9225Z" fill="#E6F2FF"/>
<path d="M20.4652 36.621L9.65577 36.6399C9.618 36.6399 9.5806 36.6325 9.54571 36.6181C9.51081 36.6037 9.47911 36.5825 9.4524 36.5559C9.4257 36.5293 9.40451 36.4977 9.39006 36.4629C9.3756 36.4281 9.36816 36.3908 9.36816 36.3531V36.322C9.36816 36.246 9.39823 36.1731 9.45184 36.1192C9.50544 36.0652 9.57824 36.0345 9.65441 36.0338L20.4652 36.0162C20.5415 36.0162 20.6146 36.0465 20.6686 36.1002C20.7225 36.154 20.7528 36.227 20.7528 36.303V36.3342C20.753 36.3719 20.7457 36.4093 20.7313 36.4441C20.7169 36.479 20.6957 36.5107 20.669 36.5374C20.6422 36.564 20.6104 36.5852 20.5755 36.5995C20.5405 36.6139 20.503 36.6211 20.4652 36.621Z" fill="#CCE4FF"/>
<path d="M20.4657 36.6209C20.5088 36.6185 20.5508 36.6067 20.5888 36.5864C20.6268 36.566 20.6598 36.5377 20.6857 36.5033C20.7115 36.4689 20.7295 36.4292 20.7384 36.3872C20.7473 36.3451 20.7468 36.3016 20.7371 36.2597C20.7262 36.1985 20.6945 36.1428 20.6473 36.1022C20.6001 36.0615 20.5403 36.0383 20.478 36.0365L17.9614 36.0554L9.65767 36.0838C9.6262 36.0838 9.59504 36.09 9.56598 36.1021C9.53693 36.1141 9.51055 36.1318 9.48836 36.154C9.46617 36.1763 9.44861 36.2027 9.43669 36.2317C9.42477 36.2608 9.41873 36.2919 9.41891 36.3233C9.41533 36.3667 9.42231 36.4103 9.43926 36.4505C9.457 36.4876 9.48405 36.5196 9.51779 36.5433C9.55154 36.567 9.59083 36.5816 9.63189 36.5857C9.72007 36.5857 9.82725 36.5857 9.92356 36.5857H13.2947H17.0281L19.5446 36.5966L20.2297 36.6047H20.4074C20.4273 36.6028 20.4472 36.6028 20.4671 36.6047C20.4473 36.6079 20.4272 36.6079 20.4074 36.6047H20.2297L19.5446 36.6142L17.0281 36.6344L13.2947 36.6507H11.0902H9.92356C9.82318 36.6507 9.73093 36.6507 9.62104 36.6507C9.56257 36.6445 9.50675 36.6231 9.45914 36.5887C9.41154 36.5543 9.37381 36.508 9.34972 36.4545C9.327 36.4021 9.31679 36.3451 9.31987 36.2881C9.31952 36.2438 9.32795 36.1999 9.3447 36.1589C9.36145 36.1179 9.38617 36.0806 9.41745 36.0491C9.44873 36.0177 9.48594 35.9927 9.52693 35.9757C9.56793 35.9587 9.6119 35.9499 9.65631 35.9499H17.9669L20.4847 35.9621C20.555 35.9651 20.6219 35.9924 20.6742 36.0393C20.7264 36.0862 20.7606 36.1498 20.771 36.2191C20.7849 36.2754 20.7839 36.3344 20.7679 36.3901C20.752 36.4459 20.7217 36.4965 20.6801 36.537C20.6534 36.5667 20.6201 36.5898 20.5829 36.6043C20.5457 36.6189 20.5056 36.6246 20.4657 36.6209Z" fill="#E6F2FF"/>
<path d="M20.6887 35.3195L9.43974 35.3385C9.40152 35.3388 9.3636 35.3316 9.32821 35.3172C9.29283 35.3028 9.26068 35.2814 9.23365 35.2545C9.20662 35.2275 9.18525 35.1955 9.17079 35.1602C9.15633 35.1249 9.14906 35.0871 9.14943 35.049V35.0178C9.14943 34.9418 9.17973 34.8688 9.23366 34.815C9.2876 34.7613 9.36075 34.731 9.43703 34.731L20.6846 34.7121C20.7609 34.7121 20.8341 34.7423 20.888 34.7961C20.9419 34.8499 20.9722 34.9228 20.9722 34.9989V35.03C20.9728 35.0676 20.9659 35.105 20.9519 35.1399C20.9379 35.1748 20.9172 35.2066 20.8908 35.2335C20.8645 35.2604 20.833 35.2819 20.7984 35.2966C20.7637 35.3114 20.7264 35.3192 20.6887 35.3195Z" fill="#007AFF"/>
<path d="M20.6881 35.3194C20.7326 35.3169 20.7759 35.3042 20.8148 35.2825C20.8537 35.2608 20.8871 35.2306 20.9126 35.1941C20.9381 35.1576 20.9549 35.1159 20.9618 35.072C20.9688 35.028 20.9656 34.9831 20.9526 34.9406C20.9375 34.8772 20.9 34.8213 20.8469 34.7833C20.7938 34.7453 20.7287 34.7276 20.6636 34.7336L18.0535 34.7539L9.43909 34.7823C9.39476 34.7833 9.35156 34.7965 9.31423 34.8204C9.2769 34.8442 9.24688 34.8779 9.22746 34.9176C9.20833 34.9573 9.19841 35.0008 9.19841 35.0448C9.19841 35.0888 9.20833 35.1323 9.22746 35.172C9.248 35.21 9.27857 35.2417 9.31587 35.2636C9.35318 35.2856 9.39578 35.2969 9.43909 35.2964H13.2444H17.1175L19.7276 35.3073L20.4371 35.3154H20.6229H20.6853C20.6646 35.3177 20.6437 35.3177 20.6229 35.3154H20.4371L19.7276 35.3248L17.1175 35.3451L13.2444 35.3627H10.9571H9.74704H9.43909C9.37827 35.3627 9.31855 35.3466 9.26609 35.3159C9.21363 35.2852 9.17032 35.2411 9.14064 35.1882C9.1127 35.1348 9.0987 35.0753 9.09994 35.015C9.09732 34.955 9.11041 34.8953 9.13792 34.8419C9.16625 34.7873 9.20907 34.7415 9.2617 34.7095C9.31433 34.6776 9.37475 34.6606 9.43637 34.6606H18.0508L20.6609 34.6714C20.7336 34.6671 20.8054 34.6886 20.8635 34.7323C20.9217 34.7759 20.9624 34.8387 20.9784 34.9095C20.9907 34.9601 20.991 35.0129 20.9792 35.0636C20.9674 35.1144 20.9439 35.1617 20.9105 35.2017C20.8685 35.2492 20.8116 35.2811 20.7491 35.2924C20.7308 35.3055 20.7101 35.3147 20.6881 35.3194Z" fill="#007AFF"/>
<path d="M7.92773 29.9594C7.92773 30.0663 8.16243 32.5975 8.28316 33.8976C8.30507 34.1329 8.38017 34.3602 8.50282 34.5625C8.62548 34.7647 8.79249 34.9366 8.99131 35.0652L9.58279 35.448L20.8019 35.4697L21.3866 35.0936C21.5881 34.9641 21.7571 34.7903 21.8808 34.5856C22.0045 34.3809 22.0796 34.1506 22.1002 33.9125L22.4407 29.9892L7.92773 29.9594Z" fill="#007AFF"/>
<g opacity="0.3">
<path d="M10.3779 39.2158C11.4632 39.462 12.5349 39.4863 13.722 39.4863C14.6797 39.4863 15.6212 39.512 16.6577 39.4931C17.4201 39.4782 18.1214 39.4417 18.8811 39.4106C19.265 39.3943 19.687 39.2983 19.7643 39.2212L10.3779 39.2158Z" fill="#E6F2FF"/>
</g>
<g opacity="0.3">
<path d="M9.98047 37.9089C11.1444 38.1551 12.3057 38.1794 13.585 38.1794C14.6173 38.1794 15.6294 38.2052 16.7513 38.1794C17.5652 38.1659 18.3277 38.1294 19.147 38.0983C19.5608 38.082 20.0153 37.986 20.0967 37.9089H9.98047Z" fill="#E6F2FF"/>
</g>
<g opacity="0.3">
<path d="M9.9834 36.6169C11.1474 36.8631 12.3086 36.8875 13.5879 36.8875C14.6203 36.8875 15.6323 36.9132 16.7529 36.8875C17.575 36.8739 18.3306 36.8374 19.1486 36.8063C19.5637 36.79 20.0182 36.694 20.0982 36.6169H9.9834Z" fill="#E6F2FF"/>
</g>
<g opacity="0.3">
<path d="M9.98438 35.3195C11.1497 35.5657 12.311 35.5901 13.5889 35.5901C14.6226 35.5901 15.6346 35.6158 16.7552 35.5901C17.5759 35.5766 18.3329 35.54 19.151 35.5089C19.5661 35.4927 20.0205 35.3966 20.1006 35.3195H9.98438Z" fill="#007AFF"/>
</g>
<g opacity="0.3">
<path d="M7.92773 29.9594C7.92773 30.0663 8.16243 32.5975 8.28316 33.8976C8.30507 34.1329 8.38017 34.3602 8.50282 34.5625C8.62548 34.7647 8.79249 34.9366 8.99131 35.0652L9.58279 35.448L20.8019 35.4697L21.3866 35.0936C21.5881 34.9641 21.7571 34.7903 21.8808 34.5856C22.0045 34.3809 22.0796 34.1506 22.1002 33.9125L22.4407 29.9892L7.92773 29.9594Z" fill="#007AFF"/>
</g>
<path d="M21.8275 34.4496C21.8275 34.4767 18.8267 34.4943 15.1258 34.4861C11.425 34.478 8.42285 34.4523 8.42285 34.4253C8.42285 34.3982 11.4237 34.382 15.1258 34.3887C18.828 34.3955 21.8275 34.4239 21.8275 34.4496Z" fill="#E6F2FF"/>
<path d="M22.3638 29.908C22.3638 29.9378 19.1079 29.9689 15.0869 29.977C11.066 29.9851 7.80604 29.9675 7.80469 29.9378C7.80333 29.908 11.0605 29.8769 15.0829 29.8688C19.1052 29.8606 22.3638 29.8823 22.3638 29.908Z" fill="#E6F2FF"/>
<path d="M15.5374 22.9475C14.0349 22.9475 12.5661 22.5032 11.3168 21.6707C10.0674 20.8382 9.09372 19.655 8.51872 18.2707C7.94372 16.8863 7.79328 15.363 8.08641 13.8934C8.37954 12.4238 9.10308 11.0738 10.1655 10.0143C11.228 8.95477 12.5816 8.23322 14.0553 7.94089C15.529 7.64857 17.0565 7.7986 18.4447 8.37202C19.8328 8.94543 21.0193 9.91648 21.8541 11.1624C22.6889 12.4082 23.1344 13.873 23.1344 15.3714C23.1344 17.3807 22.334 19.3077 20.9093 20.7285C19.4846 22.1493 17.5523 22.9475 15.5374 22.9475ZM15.5374 9.33489C14.3394 9.33489 13.1683 9.68916 12.1722 10.3529C11.1761 11.0167 10.3997 11.9601 9.94126 13.0638C9.4828 14.1676 9.36285 15.3822 9.59657 16.5539C9.83029 17.7257 10.4072 18.802 11.2543 19.6468C12.1014 20.4916 13.1807 21.0669 14.3557 21.3C15.5307 21.5331 16.7486 21.4134 17.8554 20.9562C18.9622 20.499 19.9083 19.7248 20.5738 18.7314C21.2394 17.7381 21.5947 16.5702 21.5947 15.3755C21.5929 13.774 20.9541 12.2386 19.8186 11.1061C18.683 9.97367 17.1433 9.33668 15.5374 9.33489Z" fill="#007AFF"/>
<path d="M13.5204 18.6941C12.8703 18.3682 12.3246 17.8672 11.9454 17.2479C11.575 16.6108 11.3799 15.8874 11.3799 15.1509C11.3799 14.4145 11.575 13.6911 11.9454 13.054C12.325 12.4345 12.8705 11.9332 13.5204 11.6064C14.2253 11.2498 15.0065 11.0693 15.7968 11.0801C16.5586 11.0628 17.3119 11.2423 17.9837 11.601C18.5898 11.9321 19.0673 12.456 19.3403 13.0891L17.5604 14.047C17.148 13.3254 16.5543 12.9647 15.7792 12.9647C15.5033 12.9557 15.2285 13.0032 14.9718 13.1045C14.7151 13.2057 14.482 13.3584 14.2869 13.5532C13.8953 13.9446 13.6991 14.4781 13.6981 15.1536C13.6972 15.8292 13.8935 16.3626 14.2869 16.7541C14.4821 16.9486 14.7152 17.1012 14.9719 17.2022C15.2286 17.3032 15.5034 17.3505 15.7792 17.3412C16.5633 17.3412 17.157 16.9804 17.5604 16.2589L19.3416 17.2289C19.0615 17.8523 18.5852 18.3676 17.985 18.6968C17.3143 19.0597 16.5596 19.2402 15.7968 19.2204C15.0064 19.2317 14.2252 19.0511 13.5204 18.6941Z" fill="#007AFF"/>
<g opacity="0.5">
<path d="M15.5374 22.9475C14.0349 22.9475 12.5661 22.5032 11.3168 21.6707C10.0674 20.8383 9.09372 19.655 8.51872 18.2707C7.94372 16.8863 7.79328 15.363 8.08641 13.8934C8.37954 12.4238 9.10308 11.0739 10.1655 10.0143C11.228 8.9548 12.5816 8.23325 14.0553 7.94092C15.529 7.6486 17.0565 7.79863 18.4447 8.37205C19.8328 8.94546 21.0193 9.91651 21.8541 11.1624C22.6889 12.4083 23.1344 13.873 23.1344 15.3714C23.1344 17.3807 22.334 19.3078 20.9093 20.7285C19.4846 22.1493 17.5523 22.9475 15.5374 22.9475ZM15.5374 9.33492C14.3394 9.33492 13.1683 9.6892 12.1722 10.3529C11.1761 11.0167 10.3997 11.9601 9.94126 13.0639C9.4828 14.1676 9.36285 15.3822 9.59657 16.554C9.83029 17.7257 10.4072 18.802 11.2543 19.6468C12.1014 20.4916 13.1807 21.0669 14.3557 21.3C15.5307 21.5331 16.7486 21.4135 17.8554 20.9563C18.9622 20.4991 19.9083 19.7248 20.5738 18.7315C21.2394 17.7381 21.5947 16.5702 21.5947 15.3755C21.5929 13.774 20.9541 12.2386 19.8186 11.1061C18.683 9.9737 17.1433 9.33671 15.5374 9.33492Z" fill="#007AFF"/>
<path d="M13.5204 18.6941C12.8703 18.3682 12.3246 17.8672 11.9454 17.2479C11.575 16.6108 11.3799 15.8874 11.3799 15.1509C11.3799 14.4145 11.575 13.6911 11.9454 13.054C12.325 12.4346 12.8705 11.9332 13.5204 11.6064C14.2253 11.2499 15.0065 11.0693 15.7968 11.0801C16.5586 11.0629 17.3119 11.2423 17.9837 11.601C18.5898 11.9321 19.0673 12.456 19.3403 13.0892L17.5604 14.047C17.148 13.3255 16.5543 12.9647 15.7792 12.9647C15.5033 12.9557 15.2285 13.0033 14.9718 13.1045C14.7151 13.2057 14.482 13.3584 14.2869 13.5532C13.8953 13.9446 13.6991 14.4781 13.6981 15.1536C13.6972 15.8292 13.8935 16.3627 14.2869 16.7541C14.4821 16.9487 14.7152 17.1012 14.9719 17.2022C15.2286 17.3032 15.5034 17.3505 15.7792 17.3412C16.5633 17.3412 17.157 16.9805 17.5604 16.2589L19.3416 17.229C19.0615 17.8523 18.5852 18.3676 17.985 18.6968C17.3143 19.0597 16.5596 19.2403 15.7968 19.2204C15.0064 19.2317 14.2252 19.0511 13.5204 18.6941Z" fill="#007AFF"/>
</g>
</svg>
