<svg width="121" height="24" viewBox="0 0 121 24" fill="none" xmlns="http://www.w3.org/2000/svg">
<path d="M14.9297 10L13.4597 5.16C13.1697 4.21 11.8297 4.21 11.5497 5.16L10.0697 10H5.61971C4.64971 10 4.24971 11.25 5.03971 11.81L8.67972 14.41L7.24971 19.02C6.95971 19.95 8.03972 20.7 8.80972 20.11L12.4997 17.31L16.1897 20.12C16.9597 20.71 18.0397 19.96 17.7497 19.03L16.3197 14.42L19.9597 11.82C20.7497 11.25 20.3497 10.01 19.3797 10.01H14.9297V10Z" fill="#FCD209"/>
<path d="M38.9297 10L37.4597 5.16C37.1697 4.21 35.8297 4.21 35.5497 5.16L34.0697 10H29.6197C28.6497 10 28.2497 11.25 29.0397 11.81L32.6797 14.41L31.2497 19.02C30.9597 19.95 32.0397 20.7 32.8097 20.11L36.4997 17.31L40.1897 20.12C40.9597 20.71 42.0397 19.96 41.7497 19.03L40.3197 14.42L43.9597 11.82C44.7497 11.25 44.3497 10.01 43.3797 10.01H38.9297V10Z" fill="#FCD209"/>
<path d="M62.9297 10L61.4597 5.16C61.1697 4.21 59.8297 4.21 59.5497 5.16L58.0697 10H53.6197C52.6497 10 52.2497 11.25 53.0397 11.81L56.6797 14.41L55.2497 19.02C54.9597 19.95 56.0397 20.7 56.8097 20.11L60.4997 17.31L64.1897 20.12C64.9597 20.71 66.0397 19.96 65.7497 19.03L64.3197 14.42L67.9597 11.82C68.7497 11.25 68.3497 10.01 67.3797 10.01H62.9297V10Z" fill="#FCD209"/>
<path d="M86.9297 10L85.4597 5.16C85.1697 4.21 83.8297 4.21 83.5497 5.16L82.0697 10H77.6197C76.6497 10 76.2497 11.25 77.0397 11.81L80.6797 14.41L79.2497 19.02C78.9597 19.95 80.0397 20.7 80.8097 20.11L84.4997 17.31L88.1897 20.12C88.9597 20.71 90.0397 19.96 89.7497 19.03L88.3197 14.42L91.9597 11.82C92.7497 11.25 92.3497 10.01 91.3797 10.01H86.9297V10Z" fill="#FCD209"/>
<path d="M110.93 10L109.46 5.16C109.17 4.21 107.83 4.21 107.55 5.16L106.07 10H101.62C100.65 10 100.25 11.25 101.04 11.81L104.68 14.41L103.25 19.02C102.96 19.95 104.04 20.7 104.81 20.11L108.5 17.31L112.19 20.12C112.96 20.71 114.04 19.96 113.75 19.03L112.32 14.42L115.96 11.82C116.75 11.25 116.35 10.01 115.38 10.01H110.93V10Z" fill="#FCD209"/>
</svg>
