<svg width="33" height="42" viewBox="0 0 33 42" fill="none" xmlns="http://www.w3.org/2000/svg">
<ellipse cx="26.9679" cy="31.4781" rx="4.98746" ry="4.99267" fill="#E6F2FF"/>
<path d="M21.8311 39.2717L23.8619 36.0752L26.3407 37.3538L24.1904 40.5199L23.6528 39.2717H21.8311Z" fill="#E6F2FF"/>
<path d="M29.3272 40.2459L27.6249 36.9276L30.1037 36.0752L31.9553 39.2717H30.2829L29.3272 40.2459Z" fill="#E6F2FF"/>
<path d="M0 5.93641L2.68785 3.16609L5.97301 0H26.9383V36.958H0V5.93641Z" fill="#E6F2FF"/>
<path d="M13.1544 7.03239V5.77472C13.1544 5.44619 13.416 5.17949 13.7383 5.17949C14.0606 5.17949 14.3222 5.44619 14.3222 5.77472V7.03239C14.3222 7.36092 14.0606 7.62761 13.7383 7.62761C13.4157 7.62761 13.1544 7.36155 13.1544 7.03239ZM9.79117 8.27008C9.89943 8.46099 10.0954 8.56786 10.2976 8.56786C10.3966 8.56786 10.497 8.54217 10.5888 8.48826C10.8679 8.324 10.9637 7.95963 10.8025 7.67514L10.1856 6.58585C10.0245 6.3014 9.66704 6.20373 9.38796 6.36799C9.10891 6.53225 9.01309 6.89662 9.17424 7.18111L9.79117 8.27008ZM6.41705 10.4268L7.48566 11.0556C7.57774 11.1095 7.67792 11.1352 7.77684 11.1352C7.97843 11.1352 8.17505 11.0286 8.28331 10.8374C8.44445 10.553 8.34895 10.1886 8.06959 10.0243L7.00097 9.39546C6.72192 9.2312 6.36448 9.32855 6.2033 9.61332C6.04216 9.89872 6.138 10.2625 6.41705 10.4268ZM18.0883 6.36735C17.8093 6.20308 17.4524 6.30043 17.2906 6.58521L16.6737 7.6745C16.5126 7.95895 16.6081 8.32332 16.8875 8.48762C16.9795 8.54153 17.0797 8.56721 17.1786 8.56721C17.3802 8.56721 17.5768 8.46066 17.6851 8.26944L18.302 7.18014C18.4632 6.89601 18.3677 6.53227 18.0883 6.36735ZM21.273 9.61364C21.1118 9.32919 20.7544 9.23152 20.4753 9.39578L19.4067 10.0246C19.1276 10.1889 19.0318 10.5533 19.193 10.8377C19.3012 11.0286 19.4972 11.1355 19.6994 11.1355C19.7984 11.1355 19.8988 11.1098 19.9906 11.0559L21.0592 10.4271C21.3386 10.2625 21.4341 9.89877 21.273 9.61364ZM17.3669 15.7575C16.9976 16.34 16.6171 16.9409 16.4507 18.2751C16.8243 18.4879 17.0775 18.8941 17.0775 19.3599V20.7558C17.0775 21.4405 16.5306 21.998 15.859 21.998H15.7905V22.0516C15.7905 22.7159 15.2601 23.257 14.608 23.257H12.868C12.2163 23.257 11.6855 22.7163 11.6855 22.0516V21.998H11.6171C10.9455 21.998 10.3985 21.4411 10.3985 20.7558V19.3599C10.3985 18.8941 10.6518 18.4875 11.0254 18.2751C10.859 16.9409 10.4785 16.34 10.1092 15.7575C9.7191 15.142 9.31561 14.5058 9.31561 13.2462C9.31561 10.7603 11.2994 8.73842 13.7378 8.73842C16.1764 8.73842 18.16 10.7607 18.16 13.2462C18.1603 14.5058 17.7565 15.1422 17.3667 15.7575H17.3669ZM15.9094 19.3599C15.9094 19.333 15.8851 19.3082 15.8587 19.3082H11.6165C11.5901 19.3082 11.5658 19.333 11.5658 19.3599V20.7558C11.5658 20.7828 11.5901 20.8075 11.6165 20.8075H12.2689C12.5912 20.8075 12.8528 21.0742 12.8528 21.4027V22.0516C12.8528 22.0585 12.8606 22.0668 12.8678 22.0668H14.6077C14.6146 22.0668 14.6227 22.0589 14.6227 22.0516V21.4027C14.6227 21.0742 14.8843 20.8075 15.2066 20.8075H15.859C15.8854 20.8075 15.9097 20.7828 15.9097 20.7558L15.9094 19.3599ZM16.9923 13.2462C16.9923 11.4168 15.532 9.92854 13.738 9.92854C11.9433 9.92854 10.4833 11.4171 10.4833 13.2462C10.4833 14.155 10.7378 14.5562 11.09 15.1115C11.491 15.7438 11.98 16.516 12.1825 18.1177H13.1541V14.3177L11.7999 13.5208C11.5208 13.3565 11.425 12.9922 11.5861 12.7077C11.7473 12.4232 12.1047 12.3259 12.3838 12.4898L13.738 13.2867L15.0922 12.4898C15.3713 12.3256 15.7287 12.4229 15.8899 12.7077C16.051 12.9921 15.9555 13.3565 15.6762 13.5208L14.322 14.3177V18.1177H15.2935C15.496 16.5163 15.9854 15.7438 16.3861 15.1115C16.7386 14.5562 16.9924 14.1545 16.9924 13.2462H16.9923ZM3.64144 28.7795H13.915C14.2373 28.7795 14.4989 28.5128 14.4989 28.1843C14.4989 27.8557 14.2373 27.5891 13.915 27.5891H3.64144C3.31914 27.5891 3.05751 27.8558 3.05751 28.1843C3.0572 28.5128 3.31852 28.7795 3.64144 28.7795ZM17.6024 31.208H3.64144C3.31914 31.208 3.05751 31.4747 3.05751 31.8032C3.05751 32.1317 3.31915 32.3984 3.64144 32.3984H17.6031C17.9254 32.3984 18.1871 32.1317 18.1871 31.8032C18.1871 31.4747 17.9251 31.208 17.6025 31.208H17.6024ZM32.8901 40.1193C32.7563 40.3092 32.5255 40.4022 32.3006 40.3552L30.7118 40.0286L30.1951 41.5945C30.1223 41.8162 29.9279 41.9738 29.6998 41.9969C29.4702 42.0207 29.2509 41.905 29.1364 41.7023L26.8915 37.7387L24.6466 41.7023C24.5418 41.8875 24.348 41.9998 24.1411 41.9998C24.1215 41.9998 24.1025 41.9988 24.0829 41.9969C23.8549 41.9738 23.6608 41.8162 23.5877 41.5945L23.0709 40.0286L21.4822 40.3552C21.2573 40.4015 21.0264 40.3092 20.8927 40.1193C20.7589 39.9293 20.7465 39.6769 20.8609 39.4743L21.9354 37.5773H0.583922C0.261626 37.5773 0 37.3106 0 36.9821V6.20123C0 6.04489 0.060352 5.8949 0.167682 5.78359L5.58504 0.177585C5.69455 0.0640605 5.84481 0 6.00098 0H26.8914C27.2137 0 27.4753 0.266698 27.4753 0.595224V25.6787C30.3729 25.9781 32.6416 28.4789 32.6416 31.5102C32.6416 33.1909 31.9435 34.707 30.828 35.777L32.9223 39.4746C33.0365 39.6769 33.024 39.9294 32.8903 40.119L32.8901 40.1193ZM26.8909 26.8396C24.3642 26.8396 22.3085 28.935 22.3085 31.5107C22.3085 34.0864 24.3642 36.1818 26.8909 36.1818C29.4177 36.1818 31.4734 34.0864 31.4734 31.5107C31.4737 28.935 29.4179 26.8396 26.8909 26.8396ZM1.97871 5.60651H5.41693L5.41724 2.04815L1.97871 5.60651ZM22.6095 36.3874L22.9548 35.7776C21.8395 34.7079 21.1412 33.1915 21.1412 31.5107C21.1412 28.4794 23.4099 25.9786 26.3075 25.6793V1.19082H6.5854V6.2016C6.5854 6.53013 6.32377 6.79682 6.00148 6.79682H1.1686V36.3876L22.6095 36.3874ZM25.8109 37.2671C25.1191 37.132 24.4708 36.8716 23.8899 36.5079L22.5189 38.9281L23.3446 38.7581C23.633 38.6985 23.9198 38.8675 24.0134 39.1516L24.2819 39.9656L25.8109 37.2671ZM31.2641 38.9281L29.8931 36.5079C29.3123 36.8717 28.6643 37.132 27.9721 37.2671L29.5005 39.9664L29.769 39.1524C29.8629 38.8682 30.1495 38.6995 30.4378 38.7588L31.2641 38.9281ZM26.8914 28.3461C28.6034 28.3461 29.9961 29.7658 29.9961 31.5109C29.9961 33.2559 28.6034 34.6757 26.8914 34.6757C25.1795 34.6757 23.7867 33.2559 23.7867 31.5109C23.7867 29.7658 25.1795 28.3461 26.8914 28.3461ZM26.8914 29.5362C25.8234 29.5362 24.9542 30.4222 24.9542 31.5109C24.9542 32.5995 25.8234 33.4855 26.8914 33.4855C27.9594 33.4855 28.8286 32.5995 28.8286 31.5109C28.8289 30.4222 27.9597 29.5362 26.8914 29.5362Z" fill="#007AFF"/>
</svg>
