<svg width="128" height="14" viewBox="0 0 128 14" fill="none" xmlns="http://www.w3.org/2000/svg">
<path d="M6.15625 1.57812C6.05208 1.98958 5.94792 2.42708 5.84375 2.89062C5.73958 3.35417 5.64323 3.8125 5.55469 4.26562C5.47135 4.71354 5.40365 5.1224 5.35156 5.49219H3.5625L3.45312 5.32031C3.54688 4.9401 3.66667 4.53385 3.8125 4.10156C3.96354 3.66927 4.125 3.23698 4.29688 2.80469C4.47396 2.36719 4.65104 1.95833 4.82812 1.57812H6.15625ZM2.89844 1.57812C2.79427 1.98958 2.6901 2.42708 2.58594 2.89062C2.48177 3.35417 2.38542 3.8125 2.29688 4.26562C2.21354 4.71354 2.14323 5.1224 2.08594 5.49219H0.304688L0.203125 5.32031C0.296875 4.9401 0.416667 4.53385 0.5625 4.10156C0.708333 3.66927 0.867188 3.23698 1.03906 2.80469C1.21615 2.36719 1.39323 1.95833 1.57031 1.57812H2.89844ZM11.8203 13H9.9375V3.17188H6.59375V1.57812H15.1562V3.17188H11.8203V13ZM18.5547 0.84375V3.89844C18.5547 4.21615 18.5443 4.52604 18.5234 4.82812C18.5078 5.13021 18.4896 5.36458 18.4688 5.53125H18.5703C18.7526 5.22917 18.9766 4.98177 19.2422 4.78906C19.5078 4.59115 19.8047 4.44271 20.1328 4.34375C20.4661 4.24479 20.8203 4.19531 21.1953 4.19531C21.8568 4.19531 22.4193 4.30729 22.8828 4.53125C23.3464 4.75 23.7005 5.09115 23.9453 5.55469C24.1953 6.01823 24.3203 6.61979 24.3203 7.35938V13H22.4844V7.70312C22.4844 7.03125 22.3464 6.52865 22.0703 6.19531C21.7943 5.85677 21.3672 5.6875 20.7891 5.6875C20.2318 5.6875 19.7891 5.80469 19.4609 6.03906C19.138 6.26823 18.9062 6.60938 18.7656 7.0625C18.625 7.51042 18.5547 8.05729 18.5547 8.70312V13H16.7188V0.84375H18.5547ZM28.7266 4.35156V13H26.8906V4.35156H28.7266ZM27.8203 1.03906C28.1016 1.03906 28.3438 1.11458 28.5469 1.26562C28.7552 1.41667 28.8594 1.67708 28.8594 2.04688C28.8594 2.41146 28.7552 2.67188 28.5469 2.82812C28.3438 2.97917 28.1016 3.05469 27.8203 3.05469C27.5286 3.05469 27.2812 2.97917 27.0781 2.82812C26.8802 2.67188 26.7812 2.41146 26.7812 2.04688C26.7812 1.67708 26.8802 1.41667 27.0781 1.26562C27.2812 1.11458 27.5286 1.03906 27.8203 1.03906ZM35.8672 4.1875C36.8411 4.1875 37.599 4.4401 38.1406 4.94531C38.6875 5.44531 38.9609 6.25 38.9609 7.35938V13H37.125V7.70312C37.125 7.03125 36.987 6.52865 36.7109 6.19531C36.4349 5.85677 36.0078 5.6875 35.4297 5.6875C34.5911 5.6875 34.0078 5.94531 33.6797 6.46094C33.3568 6.97656 33.1953 7.72396 33.1953 8.70312V13H31.3594V4.35156H32.7891L33.0469 5.52344H33.1484C33.3359 5.22135 33.5677 4.97396 33.8438 4.78125C34.125 4.58333 34.4375 4.4349 34.7812 4.33594C35.1302 4.23698 35.4922 4.1875 35.8672 4.1875ZM43.3672 0.84375V6.71875C43.3672 6.98438 43.3568 7.27604 43.3359 7.59375C43.3151 7.90625 43.2943 8.20052 43.2734 8.47656H43.3125C43.4479 8.29427 43.6094 8.08073 43.7969 7.83594C43.9896 7.59115 44.1719 7.3776 44.3438 7.19531L46.9844 4.35156H49.0938L45.6328 8.07031L49.3203 13H47.1641L44.3984 9.20312L43.3672 10.0859V13H41.5312V0.84375H43.3672ZM57.7656 13.1562C56.7344 13.1562 55.9062 12.7812 55.2812 12.0312C54.6615 11.276 54.3516 10.1641 54.3516 8.69531C54.3516 7.21094 54.6667 6.08854 55.2969 5.32812C55.9323 4.56771 56.7682 4.1875 57.8047 4.1875C58.2422 4.1875 58.625 4.2474 58.9531 4.36719C59.2812 4.48177 59.5625 4.63802 59.7969 4.83594C60.0365 5.03385 60.2396 5.25521 60.4062 5.5H60.4922C60.4661 5.33854 60.4349 5.10677 60.3984 4.80469C60.3672 4.4974 60.3516 4.21354 60.3516 3.95312V0.84375H62.1953V13H60.7578L60.4297 11.8203H60.3516C60.1953 12.0703 59.9974 12.2969 59.7578 12.5C59.5234 12.6979 59.2422 12.8568 58.9141 12.9766C58.5911 13.0964 58.2083 13.1562 57.7656 13.1562ZM58.2812 11.6641C59.0677 11.6641 59.6224 11.4375 59.9453 10.9844C60.2682 10.5312 60.4349 9.85156 60.4453 8.94531V8.70312C60.4453 7.73438 60.2891 6.99219 59.9766 6.47656C59.6641 5.95573 59.0938 5.69531 58.2656 5.69531C57.6042 5.69531 57.099 5.96354 56.75 6.5C56.4062 7.03125 56.2344 7.77344 56.2344 8.72656C56.2344 9.67969 56.4062 10.4089 56.75 10.9141C57.099 11.4141 57.6094 11.6641 58.2812 11.6641ZM66.6641 4.35156V13H64.8281V4.35156H66.6641ZM65.7578 1.03906C66.0391 1.03906 66.2812 1.11458 66.4844 1.26562C66.6927 1.41667 66.7969 1.67708 66.7969 2.04688C66.7969 2.41146 66.6927 2.67188 66.4844 2.82812C66.2812 2.97917 66.0391 3.05469 65.7578 3.05469C65.4661 3.05469 65.2188 2.97917 65.0156 2.82812C64.8177 2.67188 64.7188 2.41146 64.7188 2.04688C64.7188 1.67708 64.8177 1.41667 65.0156 1.26562C65.2188 1.11458 65.4661 1.03906 65.7578 1.03906ZM73.6172 5.75H71.5156V13H69.6797V5.75H68.2656V4.86719L69.6797 4.32812V3.72656C69.6797 2.99219 69.7943 2.40885 70.0234 1.97656C70.2578 1.54427 70.5911 1.23438 71.0234 1.04688C71.4609 0.854167 71.9818 0.757812 72.5859 0.757812C72.9818 0.757812 73.3438 0.791667 73.6719 0.859375C74 0.921875 74.276 0.994792 74.5 1.07812L74.0234 2.46875C73.8464 2.41146 73.6484 2.35938 73.4297 2.3125C73.2109 2.26042 72.9766 2.23438 72.7266 2.23438C72.3099 2.23438 72.0026 2.36458 71.8047 2.625C71.612 2.88542 71.5156 3.26562 71.5156 3.76562V4.35156H73.6172V5.75ZM79.4062 5.75H77.3047V13H75.4688V5.75H74.0547V4.86719L75.4688 4.32812V3.72656C75.4688 2.99219 75.5833 2.40885 75.8125 1.97656C76.0469 1.54427 76.3802 1.23438 76.8125 1.04688C77.25 0.854167 77.7708 0.757812 78.375 0.757812C78.7708 0.757812 79.1328 0.791667 79.4609 0.859375C79.7891 0.921875 80.0651 0.994792 80.2891 1.07812L79.8125 2.46875C79.6354 2.41146 79.4375 2.35938 79.2188 2.3125C79 2.26042 78.7656 2.23438 78.5156 2.23438C78.099 2.23438 77.7917 2.36458 77.5938 2.625C77.401 2.88542 77.3047 3.26562 77.3047 3.76562V4.35156H79.4062V5.75ZM84.3203 4.1875C85.0911 4.1875 85.7526 4.34635 86.3047 4.66406C86.8568 4.98177 87.2812 5.43229 87.5781 6.01562C87.875 6.59896 88.0234 7.29688 88.0234 8.10938V9.09375H82.25C82.2708 9.93229 82.4948 10.5781 82.9219 11.0312C83.3542 11.4844 83.9583 11.7109 84.7344 11.7109C85.2865 11.7109 85.7812 11.6589 86.2188 11.5547C86.6615 11.4453 87.1172 11.2865 87.5859 11.0781V12.5703C87.1536 12.7734 86.7135 12.9219 86.2656 13.0156C85.8177 13.1094 85.2812 13.1562 84.6562 13.1562C83.8073 13.1562 83.0599 12.9922 82.4141 12.6641C81.7734 12.3307 81.2708 11.8359 80.9062 11.1797C80.5469 10.5234 80.3672 9.70833 80.3672 8.73438C80.3672 7.76562 80.5312 6.94271 80.8594 6.26562C81.1875 5.58854 81.6484 5.07292 82.2422 4.71875C82.8359 4.36458 83.5286 4.1875 84.3203 4.1875ZM84.3203 5.57031C83.7422 5.57031 83.2734 5.75781 82.9141 6.13281C82.5599 6.50781 82.3516 7.05729 82.2891 7.78125H86.2266C86.2214 7.34896 86.1484 6.96615 86.0078 6.63281C85.8724 6.29948 85.6641 6.03906 85.3828 5.85156C85.1068 5.66406 84.7526 5.57031 84.3203 5.57031ZM94.4766 4.1875C94.6224 4.1875 94.7812 4.19531 94.9531 4.21094C95.125 4.22656 95.2734 4.2474 95.3984 4.27344L95.2266 5.99219C95.1172 5.96094 94.9818 5.9375 94.8203 5.92188C94.6641 5.90625 94.5234 5.89844 94.3984 5.89844C94.0703 5.89844 93.7578 5.95312 93.4609 6.0625C93.1641 6.16667 92.901 6.32812 92.6719 6.54688C92.4427 6.76042 92.263 7.02865 92.1328 7.35156C92.0026 7.67448 91.9375 8.04948 91.9375 8.47656V13H90.0938V4.35156H91.5312L91.7812 5.875H91.8672C92.0391 5.56771 92.2526 5.28646 92.5078 5.03125C92.763 4.77604 93.0547 4.57292 93.3828 4.42188C93.7161 4.26562 94.0807 4.1875 94.4766 4.1875ZM100.445 4.1875C101.216 4.1875 101.878 4.34635 102.43 4.66406C102.982 4.98177 103.406 5.43229 103.703 6.01562C104 6.59896 104.148 7.29688 104.148 8.10938V9.09375H98.375C98.3958 9.93229 98.6198 10.5781 99.0469 11.0312C99.4792 11.4844 100.083 11.7109 100.859 11.7109C101.411 11.7109 101.906 11.6589 102.344 11.5547C102.786 11.4453 103.242 11.2865 103.711 11.0781V12.5703C103.279 12.7734 102.839 12.9219 102.391 13.0156C101.943 13.1094 101.406 13.1562 100.781 13.1562C99.9323 13.1562 99.1849 12.9922 98.5391 12.6641C97.8984 12.3307 97.3958 11.8359 97.0312 11.1797C96.6719 10.5234 96.4922 9.70833 96.4922 8.73438C96.4922 7.76562 96.6562 6.94271 96.9844 6.26562C97.3125 5.58854 97.7734 5.07292 98.3672 4.71875C98.9609 4.36458 99.6536 4.1875 100.445 4.1875ZM100.445 5.57031C99.8672 5.57031 99.3984 5.75781 99.0391 6.13281C98.6849 6.50781 98.4766 7.05729 98.4141 7.78125H102.352C102.346 7.34896 102.273 6.96615 102.133 6.63281C101.997 6.29948 101.789 6.03906 101.508 5.85156C101.232 5.66406 100.878 5.57031 100.445 5.57031ZM110.727 4.1875C111.701 4.1875 112.458 4.4401 113 4.94531C113.547 5.44531 113.82 6.25 113.82 7.35938V13H111.984V7.70312C111.984 7.03125 111.846 6.52865 111.57 6.19531C111.294 5.85677 110.867 5.6875 110.289 5.6875C109.451 5.6875 108.867 5.94531 108.539 6.46094C108.216 6.97656 108.055 7.72396 108.055 8.70312V13H106.219V4.35156H107.648L107.906 5.52344H108.008C108.195 5.22135 108.427 4.97396 108.703 4.78125C108.984 4.58333 109.297 4.4349 109.641 4.33594C109.99 4.23698 110.352 4.1875 110.727 4.1875ZM119.609 11.6719C119.849 11.6719 120.086 11.651 120.32 11.6094C120.555 11.5625 120.768 11.5078 120.961 11.4453V12.8359C120.758 12.9245 120.495 13 120.172 13.0625C119.849 13.125 119.513 13.1562 119.164 13.1562C118.674 13.1562 118.234 13.0755 117.844 12.9141C117.453 12.7474 117.143 12.4635 116.914 12.0625C116.685 11.6615 116.57 11.1068 116.57 10.3984V5.75H115.391V4.92969L116.656 4.28125L117.258 2.42969H118.414V4.35156H120.891V5.75H118.414V10.375C118.414 10.8125 118.523 11.138 118.742 11.3516C118.961 11.5651 119.25 11.6719 119.609 11.6719ZM127.445 1.57812L127.562 1.75C127.469 2.13021 127.346 2.53646 127.195 2.96875C127.049 3.40104 126.891 3.83333 126.719 4.26562C126.547 4.69792 126.372 5.10677 126.195 5.49219H124.852C124.956 5.08073 125.06 4.64323 125.164 4.17969C125.268 3.71615 125.365 3.25781 125.453 2.80469C125.542 2.35156 125.612 1.94271 125.664 1.57812H127.445ZM124.188 1.57812L124.297 1.75C124.203 2.13021 124.081 2.53646 123.93 2.96875C123.784 3.40104 123.625 3.83333 123.453 4.26562C123.281 4.69792 123.107 5.10677 122.93 5.49219H121.609C121.682 5.1849 121.758 4.86198 121.836 4.52344C121.914 4.17969 121.987 3.83594 122.055 3.49219C122.128 3.14323 122.193 2.80729 122.25 2.48438C122.312 2.15625 122.362 1.85417 122.398 1.57812H124.188Z" fill="#231F20"/>
</svg>
